<?xml version="1.0" encoding="UTF-8"?>
<svg id="_レイヤー_2" data-name="レイヤー 2" xmlns="http://www.w3.org/2000/svg" viewBox="0 0 326.747 124.688">
  <g id="_レイヤー_14" data-name="レイヤー 14">
    <g id="mst_btn">
      <polygon points="282.175 124.277 .411 124.277 .411 .411 282.175 .411 326.243 60.693 282.175 124.277" fill="#fff"/>
      <path d="M282.39,124.688H0V0h282.384l.123.169,44.24,60.518-.167.24-44.19,63.762ZM.822,123.866h281.138l43.777-63.167L281.966.822H.822v123.044Z" fill="#d70c18"/>
      <path d="M17.459,43.841V12.239h5.746l5.745,15.994c.371,1.029.729,2.079,1.072,3.151s.686,2.137,1.029,3.194h.214c.371-1.058.722-2.122,1.051-3.194.328-1.072.664-2.122,1.008-3.151l5.659-15.994h5.789v31.602h-4.631v-15.607c0-.943.035-1.986.107-3.13.07-1.144.156-2.301.257-3.474.1-1.172.207-2.229.321-3.173h-.214l-2.53,7.289-5.488,15.051h-3.087l-5.531-15.051-2.53-7.289h-.171c.113.943.221,2.001.321,3.173.1,1.173.186,2.33.257,3.474s.107,2.187.107,3.13v15.607h-4.502Z" fill="#e61f19"/>
      <path d="M64.581,44.441c-2.172,0-4.223-.415-6.152-1.244-1.93-.828-3.623-1.972-5.081-3.43l2.916-3.431c1.143,1.115,2.45,2.016,3.923,2.701,1.472.687,2.98,1.029,4.523,1.029,1.887,0,3.337-.414,4.353-1.243,1.014-.829,1.521-1.9,1.521-3.216,0-.972-.214-1.751-.643-2.337s-1.022-1.079-1.779-1.479c-.758-.399-1.623-.814-2.595-1.243l-4.373-1.887c-1.029-.429-2.037-.993-3.023-1.693-.985-.7-1.801-1.587-2.443-2.659-.644-1.071-.965-2.38-.965-3.923,0-1.657.442-3.145,1.329-4.46.886-1.314,2.115-2.351,3.688-3.108,1.571-.757,3.358-1.136,5.359-1.136,1.858,0,3.616.357,5.274,1.071,1.657.715,3.072,1.688,4.245,2.916l-2.53,3.173c-1.001-.886-2.065-1.579-3.194-2.079-1.13-.5-2.395-.751-3.795-.751-1.629,0-2.915.364-3.858,1.094-.943.729-1.415,1.708-1.415,2.938,0,.915.242,1.665.729,2.251s1.122,1.071,1.908,1.458c.786.386,1.593.75,2.423,1.093l4.33,1.844c1.258.515,2.373,1.144,3.345,1.887.972.744,1.729,1.645,2.272,2.701.543,1.058.814,2.373.814,3.945,0,1.687-.443,3.223-1.329,4.609s-2.158,2.501-3.815,3.344c-1.658.843-3.646,1.266-5.961,1.266Z" fill="#e61f19"/>
      <path d="M89.45,43.841v-27.399h-9.219v-4.202h23.54v4.202h-9.262v27.399h-5.06Z" fill="#e61f19"/>
      <path d="M129.627,43.841l-9.905-31.602h5.274l4.674,16.38c.542,1.801,1.021,3.516,1.437,5.146.414,1.629.893,3.359,1.436,5.188h.215c.571-1.829,1.064-3.56,1.479-5.188.414-1.63.893-3.345,1.437-5.146l4.631-16.38h5.103l-9.905,31.602h-5.874Z" fill="#e61f19"/>
      <path d="M146.906,43.841l10.462-31.602h5.746l10.462,31.602h-5.273l-5.103-17.151c-.515-1.715-1.016-3.451-1.501-5.21-.486-1.758-.972-3.522-1.458-5.295h-.172c-.457,1.801-.937,3.573-1.436,5.316-.501,1.744-1.008,3.474-1.522,5.188l-5.103,17.151h-5.103ZM152.823,34.879v-3.944h14.75v3.944h-14.75Z" fill="#e61f19"/>
      <path d="M180.266,43.841V12.239h4.974v27.356h13.378v4.245h-18.352Z" fill="#e61f19"/>
      <path d="M216.627,44.441c-1.744,0-3.338-.258-4.781-.772s-2.68-1.329-3.709-2.443c-1.028-1.115-1.829-2.573-2.4-4.374-.572-1.801-.858-3.987-.858-6.561V12.239h4.975v18.353c0,2.373.292,4.252.879,5.638.585,1.388,1.386,2.373,2.4,2.959s2.18.879,3.495.879c1.343,0,2.529-.293,3.559-.879s1.844-1.571,2.444-2.959c.601-1.386.9-3.265.9-5.638V12.239h4.803v18.052c0,2.573-.279,4.76-.837,6.561-.557,1.801-1.351,3.259-2.379,4.374-1.029,1.114-2.267,1.929-3.709,2.443-1.444.515-3.038.772-4.781.772Z" fill="#e61f19"/>
      <path d="M239.008,43.841V12.239h18.652v4.202h-13.679v8.79h11.577v4.202h-11.577v10.162h14.15v4.245h-19.124Z" fill="#e61f19"/>
      <path d="M19.047,57.246c-.017.234-.036.501-.06.799s-.035.611-.035.939v7.874c0,.298.012.631.035.999s.043.669.06.904h-2.703c.016-.188.035-.466.059-.834s.035-.725.035-1.069v-7.874c0-.219-.008-.505-.023-.857s-.039-.646-.07-.881h2.703ZM29.951,57.058c-.016.298-.035.627-.059.987s-.035.752-.035,1.175v4.184c0,1.332-.051,2.483-.152,3.455-.103.972-.263,1.806-.482,2.503-.219.697-.489,1.316-.811,1.856-.321.541-.701,1.054-1.14,1.539-.502.596-1.081,1.117-1.739,1.563s-1.324.818-1.998,1.116-1.301.548-1.88.752l-1.951-2.045c1.112-.281,2.151-.665,3.114-1.151.964-.485,1.806-1.12,2.526-1.903.407-.485.741-.972.999-1.457.259-.486.454-1.026.588-1.622.133-.596.227-1.276.282-2.045.055-.768.082-1.668.082-2.702v-4.043c0-.423-.016-.814-.047-1.175-.032-.36-.062-.689-.094-.987h2.796Z" fill="#d70c18"/>
      <path d="M50.353,59.243c-.094.11-.211.29-.353.541-.141.251-.251.478-.329.682-.329.752-.732,1.59-1.21,2.515-.479.925-1.019,1.845-1.622,2.762-.604.916-1.233,1.751-1.892,2.503-.862.986-1.813,1.95-2.855,2.891s-2.143,1.806-3.302,2.597c-1.16.792-2.358,1.477-3.597,2.057l-1.903-1.998c1.27-.501,2.495-1.12,3.678-1.856,1.184-.736,2.284-1.543,3.303-2.421,1.018-.877,1.911-1.747,2.679-2.608.533-.596,1.05-1.258,1.552-1.986.501-.729.947-1.461,1.339-2.197s.674-1.41.847-2.021h-8.626c-.298,0-.622.012-.975.035s-.674.048-.964.071-.498.035-.623.035v-2.656c.156.016.392.035.705.059s.643.047.987.071c.345.023.635.035.869.035h8.72c.438,0,.838-.023,1.199-.071.359-.047.642-.102.846-.164l1.527,1.128ZM45.253,66.693c.626.518,1.284,1.098,1.974,1.739.689.643,1.363,1.305,2.021,1.986s1.272,1.336,1.845,1.962c.572.627,1.054,1.184,1.445,1.669l-2.067,1.833c-.58-.783-1.246-1.605-1.998-2.468-.752-.861-1.551-1.728-2.397-2.597-.846-.869-1.692-1.681-2.538-2.433l1.716-1.692Z" fill="#d70c18"/>
      <path d="M65.817,56.775c-.235.345-.467.721-.693,1.128-.228.408-.403.729-.529.964-.485.894-1.101,1.842-1.845,2.844-.744,1.003-1.603,1.986-2.573,2.95-.972.963-2.061,1.853-3.267,2.667l-2.068-1.551c1.018-.611,1.927-1.262,2.726-1.951.8-.689,1.493-1.383,2.08-2.08.588-.696,1.093-1.366,1.517-2.009.423-.643.775-1.223,1.058-1.739.141-.235.297-.561.47-.976.172-.415.306-.795.399-1.14l2.727.893ZM73.597,60.395c-.126.188-.243.416-.353.682-.11.267-.212.518-.306.753-.204.752-.493,1.582-.869,2.491-.377.908-.839,1.837-1.387,2.784-.549.948-1.176,1.854-1.881,2.715-1.081,1.332-2.37,2.538-3.866,3.619s-3.341,2.045-5.534,2.892l-2.187-1.951c1.521-.454,2.856-.983,4.008-1.586,1.151-.604,2.17-1.266,3.055-1.986.886-.721,1.673-1.488,2.362-2.304.596-.673,1.132-1.422,1.61-2.244.478-.822.893-1.646,1.245-2.468s.592-1.562.717-2.221h-8.366l.893-2.115h7.168c.329,0,.65-.02.964-.059s.58-.098.799-.177l1.928,1.175Z" fill="#d70c18"/>
      <path d="M80.906,57.246c-.048.141-.106.325-.177.552-.07.228-.133.455-.188.682-.055.228-.098.411-.129.553-.078.392-.168.865-.271,1.422-.102.556-.203,1.159-.306,1.81-.102.65-.195,1.309-.281,1.974-.087.666-.157,1.312-.212,1.939s-.082,1.198-.082,1.716c0,.407.012.818.035,1.233s.059.843.105,1.281c.142-.313.282-.646.423-.999.142-.353.282-.701.424-1.046.141-.345.273-.658.399-.94l1.175.94c-.204.58-.423,1.222-.658,1.927-.234.705-.442,1.375-.623,2.01-.18.635-.31,1.148-.388,1.54-.031.156-.062.341-.094.552-.031.212-.039.388-.023.529,0,.109.004.246.012.411.008.164.02.317.035.458l-2.139.141c-.235-.814-.438-1.888-.611-3.22-.172-1.331-.258-2.788-.258-4.371,0-.877.039-1.767.117-2.668.078-.9.172-1.774.282-2.62.109-.846.223-1.622.341-2.327.117-.705.207-1.292.271-1.763.047-.297.09-.618.129-.963s.066-.674.082-.987l2.609.235ZM86.335,68.715c-.094.407-.169.775-.224,1.104s-.082.658-.082.987c0,.267.059.517.177.752.117.235.312.438.587.611s.65.31,1.128.411c.479.103,1.069.152,1.774.152,1.065,0,2.064-.05,2.997-.152.932-.102,1.884-.263,2.855-.481l.047,2.515c-.736.141-1.595.255-2.573.341-.979.086-2.104.129-3.373.129-1.989,0-3.459-.325-4.406-.976-.948-.649-1.422-1.547-1.422-2.69,0-.424.031-.866.094-1.328s.165-.983.306-1.563l2.115.188ZM84.995,58.938c.689.11,1.469.188,2.339.235.869.047,1.766.062,2.69.047s1.81-.047,2.656-.094c.846-.047,1.574-.109,2.186-.188v2.397c-.674.062-1.434.114-2.279.153-.847.039-1.72.059-2.621.059s-1.782-.02-2.644-.059c-.862-.039-1.63-.091-2.304-.153l-.023-2.397Z" fill="#d70c18"/>
      <path d="M97.828,67.469c.893-.281,1.978-.649,3.255-1.104,1.276-.454,2.573-.924,3.89-1.41l.376,1.998c-1.191.455-2.397.913-3.619,1.375-1.223.462-2.335.89-3.338,1.281l-.563-2.14ZM98.109,59.831h7.027v2.068h-7.027v-2.068ZM100.906,55.248h2.068v19.343c0,.548-.062.979-.188,1.292-.126.313-.353.564-.682.752-.313.173-.717.286-1.211.341-.493.055-1.124.083-1.892.083-.016-.282-.082-.623-.2-1.022-.117-.399-.246-.749-.388-1.046.471.016.901.023,1.293.023s.658-.008.799-.023c.142,0,.243-.027.306-.082s.094-.161.094-.317v-19.343ZM108.874,55.436h2.068v10.342c0,1.175-.062,2.299-.188,3.372-.125,1.073-.372,2.084-.74,3.032s-.913,1.825-1.633,2.632c-.722.807-1.685,1.523-2.892,2.15-.109-.156-.255-.337-.435-.54-.18-.204-.368-.396-.563-.576-.196-.18-.381-.333-.553-.458,1.097-.548,1.97-1.167,2.62-1.856s1.144-1.441,1.481-2.257c.336-.814.56-1.684.669-2.608.11-.925.165-1.896.165-2.914v-10.318ZM104.197,69.443c.595-.345,1.312-.795,2.15-1.352.838-.556,1.695-1.132,2.573-1.728l.705,1.692c-.705.564-1.43,1.128-2.174,1.692s-1.438,1.089-2.08,1.574l-1.175-1.88ZM105.043,59.056l1.669-.917c.345.502.678,1.042.999,1.622.32.579.61,1.147.869,1.703.259.557.45,1.062.576,1.517l-1.763,1.011c-.126-.455-.31-.968-.553-1.54-.243-.571-.521-1.155-.834-1.751-.313-.595-.635-1.144-.964-1.645ZM112.939,55.436h2.115v18.168c0,.502.039.822.118.964.078.141.259.211.54.211h1.763c.188,0,.325-.09.411-.271.086-.18.153-.509.2-.986.047-.479.078-1.141.094-1.986.251.204.557.392.917.564.36.172.689.29.987.353-.063,1.065-.177,1.915-.341,2.55-.165.635-.411,1.093-.74,1.375s-.784.423-1.363.423h-2.28c-.627,0-1.116-.094-1.469-.282-.353-.188-.6-.517-.74-.987-.141-.47-.212-1.12-.212-1.95v-18.145ZM114.256,66.717l1.363-1.339c.532.438,1.081.916,1.646,1.434.563.517,1.093,1.026,1.586,1.527.494.502.897.94,1.211,1.316l-1.457,1.574c-.298-.407-.69-.873-1.176-1.398-.485-.524-1.007-1.065-1.562-1.621s-1.093-1.054-1.61-1.493ZM117.57,57.88l1.997,1.034c-.313.564-.646,1.156-.999,1.774-.353.619-.697,1.211-1.033,1.774-.338.564-.663,1.066-.976,1.505l-1.528-.87c.282-.47.584-1.002.905-1.598s.626-1.215.917-1.857c.289-.642.528-1.229.717-1.763Z" fill="#d70c18"/>
      <path d="M122.553,59.267c.673.095,1.323.169,1.95.224s1.23.082,1.81.082c1.144,0,2.354-.086,3.632-.259,1.276-.172,2.55-.423,3.818-.752v2.257c-.846.188-1.715.345-2.608.47-.893.126-1.743.22-2.55.282-.808.062-1.524.094-2.15.094-.502,0-1.073-.02-1.716-.059s-1.332-.098-2.068-.177l-.117-2.162ZM130.003,67.046c0,.596-.07,1.203-.212,1.821-.141.619-.368,1.188-.682,1.704-.313.518-.729.933-1.245,1.246-.518.313-1.168.47-1.951.47-.501,0-.999-.129-1.492-.388s-.905-.678-1.233-1.258c-.329-.579-.494-1.339-.494-2.279,0-.861.172-1.648.518-2.362.344-.713.822-1.284,1.434-1.716.61-.431,1.323-.646,2.139-.646,1.049,0,1.849.321,2.397.963.548.643.822,1.457.822,2.444ZM126.148,70.078c.438,0,.783-.142,1.034-.423.25-.282.431-.646.54-1.093.109-.447.165-.913.165-1.398,0-.518-.114-.921-.341-1.211-.228-.289-.529-.435-.905-.435-.36,0-.689.114-.986.341-.298.228-.537.54-.718.94-.18.399-.27.865-.27,1.398,0,.61.148,1.077.446,1.398s.643.481,1.034.481ZM128.828,69.984c-.017.156-.028.372-.036.646-.008.274-.016.557-.023.847s-.012.561-.012.811c0,.282.031.533.095.752.062.22.207.396.435.529.227.133.571.234,1.034.306.462.07,1.085.105,1.868.105.423,0,.873-.02,1.352-.059.478-.039.936-.09,1.375-.153.438-.062.799-.133,1.081-.211.611-.188,1.073-.478,1.387-.87.313-.392.47-.939.47-1.645,0-.455-.008-.905-.023-1.352s-.055-.913-.117-1.398l2.538.775c.016.345.023.658.023.94v.811c0,.259-.008.553-.023.881-.031.722-.153,1.337-.364,1.846-.212.509-.545.939-.999,1.292-.455.353-1.081.639-1.88.858-.345.109-.808.199-1.387.271-.58.07-1.191.125-1.833.164-.644.039-1.23.059-1.763.059-1.003,0-1.842-.051-2.516-.152-.674-.103-1.214-.247-1.621-.435-.408-.188-.709-.412-.905-.67-.196-.259-.325-.541-.388-.847s-.094-.63-.094-.976c0-.423.008-.842.023-1.257s.031-.795.047-1.14l2.257-.729ZM129.557,56.259c-.032.282-.071.639-.118,1.069s-.07.92-.07,1.469v7.168l-2.186-1.011v-3.161c0-.618-.004-1.194-.012-1.727-.008-.533-.012-.956-.012-1.27,0-.579-.012-1.077-.035-1.492s-.075-.764-.153-1.046h2.586ZM137.641,58.538c.36.235.761.533,1.199.894s.889.752,1.352,1.175c.462.423.893.834,1.292,1.234.399.399.732.764.999,1.093l-1.669,1.716c-.407-.518-.893-1.065-1.457-1.646-.563-.58-1.136-1.132-1.716-1.657-.579-.524-1.089-.943-1.527-1.257l1.527-1.552Z" fill="#d70c18"/>
      <path d="M158.465,65.941l1.903.822c-.549.925-1.191,1.83-1.928,2.715-.736.886-1.531,1.724-2.385,2.515-.854.792-1.735,1.513-2.645,2.162-.908.65-1.817,1.219-2.726,1.704-.126-.203-.286-.423-.482-.658-.196-.234-.396-.466-.6-.693-.203-.227-.392-.411-.563-.552.908-.407,1.813-.901,2.715-1.48.9-.58,1.77-1.219,2.608-1.916.838-.696,1.605-1.441,2.303-2.232s1.297-1.587,1.799-2.386ZM149.745,64.743h20.87v2.209h-20.87v-2.209ZM151.461,58.938h17.485v2.21h-17.485v-2.21ZM158.935,55.225h2.351v21.811h-2.351v-21.811ZM161.755,65.965c.501.799,1.104,1.587,1.81,2.362s1.477,1.52,2.315,2.232c.838.714,1.707,1.355,2.608,1.928.9.572,1.806,1.062,2.715,1.469-.173.141-.361.325-.564.552-.204.228-.399.463-.588.705-.188.243-.345.459-.47.646-.909-.47-1.817-1.034-2.727-1.692-.908-.657-1.786-1.386-2.632-2.186-.847-.799-1.638-1.641-2.374-2.526-.736-.885-1.387-1.79-1.95-2.715l1.856-.775Z" fill="#d70c18"/>
      <path d="M181.99,66.411l1.786.753c-.549.924-1.188,1.821-1.916,2.69-.729.87-1.516,1.692-2.361,2.468-.847.775-1.72,1.485-2.621,2.127-.901.643-1.806,1.19-2.715,1.646-.109-.188-.258-.396-.446-.623-.188-.228-.38-.454-.575-.682-.196-.227-.389-.411-.576-.552.893-.376,1.794-.847,2.703-1.41.908-.564,1.777-1.195,2.608-1.893.83-.696,1.599-1.43,2.304-2.197s1.308-1.543,1.81-2.327ZM173.153,65.565h20.987v2.139h-20.987v-2.139ZM174.281,57.927h18.919v2.14h-18.919v-2.14ZM176.021,61.1l1.997-.729c.298.439.592.917.882,1.434.29.518.544,1.022.764,1.517.22.493.384.937.493,1.328l-2.115.846c-.094-.392-.242-.842-.446-1.352-.204-.509-.442-1.03-.717-1.562-.274-.533-.561-1.026-.857-1.481ZM182.46,55.225h2.351v21.787h-2.351v-21.787ZM185.327,66.436c.501.783,1.101,1.559,1.798,2.326s1.461,1.501,2.292,2.197c.83.697,1.695,1.328,2.597,1.893.9.563,1.798,1.042,2.691,1.434-.157.141-.338.325-.541.552-.204.228-.396.455-.576.682-.18.228-.325.442-.435.646-.908-.454-1.817-1.003-2.726-1.646-.909-.642-1.783-1.358-2.621-2.15-.838-.791-1.621-1.625-2.351-2.503-.729-.877-1.367-1.771-1.915-2.679l1.786-.752ZM189.44,60.277l2.326.705c-.281.533-.575,1.077-.881,1.634-.306.556-.611,1.081-.917,1.574-.306.494-.592.937-.857,1.328l-1.904-.658c.267-.407.537-.881.812-1.422.273-.54.536-1.089.787-1.646.25-.556.462-1.061.635-1.516Z" fill="#d70c18"/>
      <path d="M206.197,56.353c-.094.455-.223,1.007-.388,1.657-.164.65-.403,1.383-.717,2.197-.267.658-.592,1.332-.975,2.021-.385.689-.78,1.315-1.188,1.88.267-.156.576-.286.929-.388s.713-.18,1.081-.235c.368-.055.701-.082.999-.082.939,0,1.73.271,2.373.811.643.541.964,1.32.964,2.339v1.151c0,.455.008.933.023,1.434.016.502.027.995.035,1.48.008.486.012.909.012,1.27h-2.232c.016-.298.031-.646.047-1.046s.027-.818.035-1.258c.008-.438.012-.861.012-1.269v-1.081c-.016-.705-.227-1.214-.635-1.528-.407-.312-.885-.47-1.434-.47-.705,0-1.406.165-2.104.494-.697.328-1.296.729-1.798,1.198-.329.329-.67.705-1.022,1.128s-.725.886-1.116,1.387l-2.021-1.504c1.081-1.019,1.997-1.99,2.749-2.914.753-.925,1.375-1.806,1.869-2.645.493-.838.881-1.634,1.163-2.386.25-.642.454-1.296.611-1.962.156-.666.25-1.289.282-1.869l2.443.188ZM197.784,58.727c.626.094,1.315.16,2.067.199.753.04,1.41.059,1.975.059,1.05,0,2.186-.023,3.408-.07,1.222-.047,2.456-.125,3.701-.234,1.246-.109,2.425-.267,3.537-.471v2.186c-.83.11-1.716.212-2.655.306-.94.095-1.896.169-2.867.224-.972.055-1.904.094-2.797.117-.894.023-1.708.035-2.444.035-.329,0-.717-.003-1.164-.012-.446-.008-.908-.026-1.387-.059-.478-.031-.936-.055-1.374-.07v-2.209ZM216.045,64.837c-.22.079-.474.165-.764.259s-.575.196-.857.306-.541.211-.775.305c-.8.314-1.728.69-2.785,1.129s-2.144.948-3.256,1.527c-.752.392-1.402.783-1.95,1.175-.549.393-.976.8-1.281,1.223s-.458.885-.458,1.387c0,.407.094.736.282.987.188.25.45.442.787.575.337.134.744.228,1.222.282.479.055,1.015.082,1.61.082.94,0,2.006-.055,3.196-.164s2.304-.259,3.338-.447l-.071,2.374c-.563.062-1.222.13-1.974.2s-1.524.125-2.315.164-1.539.059-2.244.059c-1.176,0-2.233-.109-3.173-.329-.94-.219-1.685-.599-2.232-1.14-.549-.54-.823-1.296-.823-2.268,0-.768.177-1.461.529-2.08s.814-1.179,1.387-1.681c.571-.501,1.21-.964,1.915-1.387s1.402-.807,2.092-1.151c.736-.392,1.422-.732,2.057-1.022s1.229-.552,1.786-.787c.556-.235,1.077-.47,1.562-.705.407-.173.791-.341,1.152-.506.359-.164.72-.341,1.081-.528l.963,2.162Z" fill="#d70c18"/>
      <path d="M223.802,73.062l1.951.776c-.518.392-1.121.771-1.811,1.14s-1.395.713-2.115,1.034c-.721.32-1.418.591-2.091.811-.11-.126-.263-.282-.459-.47-.196-.188-.396-.376-.599-.564-.204-.188-.385-.337-.541-.446,1.003-.267,2.024-.6,3.067-.999,1.042-.399,1.907-.826,2.597-1.281ZM218.255,64.649h10.718v1.339h-10.718v-1.339ZM218.467,56.446h10.364v1.293h-10.364v-1.293ZM218.561,71.253c1.081,0,2.312-.004,3.69-.012,1.378-.008,2.859-.02,4.441-.035,1.583-.016,3.212-.027,4.889-.035s3.345-.027,5.006-.059l-.094,1.527c-2.146.047-4.305.099-6.475.153-2.171.055-4.23.102-6.182.141-1.95.039-3.678.066-5.183.082l-.094-1.763ZM218.983,58.562h9.331v5.241h-9.331v-5.241ZM220.699,59.666v.964h5.829v-.964h-5.829ZM220.699,61.688v.987h5.829v-.987h-5.829ZM220.981,68.598l1.48-1.129c.549.235,1.14.51,1.774.823s1.238.639,1.81.976c.572.337,1.046.654,1.422.951l-1.527,1.27c-.345-.298-.795-.619-1.352-.964-.556-.345-1.151-.686-1.786-1.022s-1.242-.638-1.821-.904ZM222.65,55.201h1.903v12.08h-1.903v-12.08ZM231.604,66.858l1.856,1.058c-.877.549-1.829,1.101-2.855,1.656-1.026.557-2.057,1.082-3.09,1.575-1.034.493-2.006.921-2.915,1.281l-1.339-.964c.924-.392,1.896-.847,2.914-1.363,1.019-.518,2.005-1.062,2.961-1.634.956-.571,1.778-1.108,2.468-1.609ZM226.811,65.871l1.88.893c-.627.471-1.285.929-1.975,1.375-.689.447-1.315.819-1.88,1.117l-1.434-.8c.376-.234.771-.501,1.187-.799s.818-.607,1.211-.929c.392-.32.729-.606,1.011-.857ZM227.656,72.076h2.209v4.982h-2.209v-4.982ZM230.218,55.93h1.904v1.504c0,.689-.161,1.387-.482,2.092s-.968,1.316-1.938,1.833c-.079-.141-.2-.309-.364-.505-.165-.196-.337-.388-.518-.576-.18-.188-.333-.329-.458-.423.814-.36,1.328-.756,1.539-1.187.212-.432.317-.866.317-1.305v-1.434ZM236.399,60.912h.376l.353-.07,1.151.399c-.438,1.207-1.077,2.205-1.915,2.996-.839.792-1.822,1.427-2.95,1.904s-2.358.85-3.689,1.116c-.079-.235-.208-.501-.388-.799-.181-.298-.356-.549-.529-.753,1.19-.172,2.292-.442,3.303-.811,1.01-.368,1.892-.865,2.644-1.492s1.301-1.379,1.646-2.256v-.235ZM229.466,60.912h7.45v1.504h-7.45v-1.504ZM231.84,62.275c.658,1.065,1.681,1.899,3.067,2.503,1.386.604,3.027,1.007,4.923,1.21-.203.188-.415.443-.634.764-.22.321-.393.607-.518.858-2.037-.282-3.776-.83-5.218-1.646-1.441-.814-2.546-1.903-3.313-3.267l1.692-.423ZM231.299,55.93h4.419v1.527h-4.419v-1.527ZM231.84,74.12l1.574-1.151c.643.204,1.324.45,2.045.74s1.414.588,2.08.894,1.218.599,1.657.881l-1.692,1.293c-.408-.267-.933-.561-1.575-.882s-1.324-.639-2.044-.951c-.722-.313-1.402-.588-2.045-.823ZM232.051,70.148l1.434-1.104c.658.282,1.34.619,2.045,1.011s1.375.791,2.01,1.198c.635.408,1.163.792,1.586,1.151l-1.504,1.246c-.392-.36-.901-.748-1.527-1.163-.627-.415-1.293-.831-1.998-1.246s-1.387-.779-2.045-1.093ZM234.73,55.93h1.903v1.997c0,.361.023.572.071.635.047.032.094.052.141.059.047.009.102.012.164.012h.518c.078,0,.152-.003.224-.012.07-.007.121-.02.152-.035.094-.031.164-.133.212-.306.031-.109.05-.273.059-.493.008-.219.02-.47.035-.752.172.141.392.278.658.411.266.134.517.239.752.317-.031.345-.07.674-.117.987-.048.313-.103.54-.165.682-.078.141-.181.267-.306.376s-.259.196-.399.259c-.126.047-.286.086-.481.117-.196.031-.381.047-.553.047h-1.058c-.235,0-.478-.035-.729-.105-.251-.071-.454-.185-.611-.341-.172-.156-.293-.364-.364-.623-.07-.259-.105-.678-.105-1.258v-1.974Z" fill="#d70c18"/>
      <path d="M254.684,57.903c-.298.22-.615.467-.952.74-.337.274-.631.514-.881.718-.376.328-.851.721-1.422,1.175-.572.454-1.168.933-1.786,1.434-.619.502-1.219.983-1.799,1.445-.579.462-1.073.874-1.48,1.234-.438.376-.736.689-.893.939-.157.251-.153.498.012.74.164.243.481.568.951.976.392.329.866.721,1.422,1.175.557.455,1.152.944,1.787,1.47.634.524,1.28,1.069,1.938,1.633.658.564,1.293,1.12,1.903,1.669.611.549,1.16,1.065,1.646,1.551l-2.115,1.951c-.282-.313-.576-.631-.881-.952-.306-.321-.615-.639-.929-.952-.392-.407-.882-.885-1.469-1.434-.588-.548-1.227-1.12-1.916-1.716-.689-.595-1.367-1.179-2.032-1.75-.667-.572-1.273-1.085-1.822-1.54-.768-.643-1.257-1.214-1.469-1.716-.211-.501-.176-1.002.106-1.504.281-.501.799-1.058,1.551-1.669.438-.376.964-.811,1.574-1.304.611-.494,1.242-1.015,1.893-1.563.649-.548,1.269-1.077,1.856-1.586.588-.51,1.077-.96,1.469-1.352.282-.282.572-.584.87-.905.297-.32.524-.606.682-.857l2.186,1.95ZM253.344,61.594c.203.298.431.662.682,1.093.25.431.497.862.74,1.293s.442.787.6,1.069l-1.599.682c-.156-.329-.349-.705-.575-1.129-.228-.423-.459-.846-.693-1.269-.235-.423-.463-.791-.682-1.104l1.527-.635ZM256.141,60.513c.203.267.431.611.682,1.034.25.423.497.846.74,1.269.243.424.45.792.623,1.104l-1.575.682c-.172-.329-.376-.705-.61-1.128-.235-.423-.475-.838-.717-1.245-.243-.407-.475-.76-.693-1.058l1.551-.658Z" fill="#d70c18"/>
      <path d="M121.94,114.977c-1.288,0-2.487-.237-3.598-.714-1.111-.476-2.086-1.171-2.927-2.086-.84-.914-1.493-2.03-1.96-3.346-.467-1.316-.699-2.823-.699-4.522,0-1.68.242-3.182.728-4.508.485-1.325,1.148-2.45,1.988-3.374s1.829-1.628,2.968-2.114c1.139-.484,2.361-.728,3.668-.728,1.27,0,2.398.262,3.388.784s1.802,1.13,2.437,1.819l-1.736,2.072c-.541-.541-1.144-.984-1.806-1.33-.663-.345-1.405-.518-2.227-.518-1.194,0-2.244.317-3.149.952-.906.635-1.615,1.53-2.128,2.688-.514,1.158-.771,2.548-.771,4.172s.242,3.029.729,4.214c.485,1.187,1.176,2.096,2.071,2.73.896.635,1.951.952,3.164.952.934,0,1.769-.2,2.507-.603.736-.4,1.413-.938,2.029-1.609l1.765,2.072c-.841.971-1.788,1.712-2.843,2.226-1.055.513-2.254.77-3.598.77Z" fill="#d70c18"/>
      <path d="M134.904,114.977c-.784,0-1.409-.163-1.876-.489-.467-.327-.803-.794-1.008-1.4-.206-.606-.309-1.32-.309-2.142v-18.677h3.221v18.845c0,.43.079.732.237.91.159.177.332.266.519.266.074,0,.149-.005.224-.014.074-.01.187-.023.336-.042l.393,2.436c-.188.074-.42.145-.7.21s-.626.098-1.036.098Z" fill="#d70c18"/>
      <path d="M141.68,96.301c-.615,0-1.105-.177-1.47-.532-.364-.354-.546-.83-.546-1.428,0-.56.182-1.017.546-1.372.364-.354.854-.532,1.47-.532.579,0,1.055.178,1.429.532.373.355.56.812.56,1.372,0,.598-.187,1.074-.56,1.428-.374.355-.85.532-1.429.532ZM140.056,114.585v-15.428h3.221v15.428h-3.221Z" fill="#d70c18"/>
      <path d="M154.392,114.977c-1.4,0-2.65-.321-3.752-.966-1.102-.644-1.979-1.567-2.632-2.771-.654-1.204-.98-2.655-.98-4.354,0-1.717.354-3.178,1.064-4.382.709-1.204,1.643-2.123,2.8-2.758s2.408-.952,3.752-.952c.989,0,1.848.168,2.576.504.728.336,1.372.756,1.932,1.26l-1.596,2.101c-.411-.373-.84-.667-1.288-.882s-.934-.322-1.456-.322c-.858,0-1.624.229-2.296.686-.672.458-1.199,1.093-1.582,1.904s-.574,1.76-.574,2.842.187,2.03.561,2.842c.373.812.886,1.442,1.54,1.891.652.448,1.399.672,2.239.672.653,0,1.261-.136,1.82-.406.561-.271,1.073-.602,1.54-.994l1.344,2.156c-.709.635-1.503,1.115-2.38,1.442-.878.326-1.755.489-2.632.489Z" fill="#d70c18"/>
      <path d="M162.596,114.585v-22.316h3.164v14.364h.112l5.964-7.476h3.584l-5.208,6.3,5.796,9.128h-3.5l-4.172-6.972-2.576,2.968v4.004h-3.164Z" fill="#d70c18"/>
    </g>
  </g>
</svg>