<?xml version="1.0" encoding="UTF-8"?>
<svg id="svg-sp" xmlns="http://www.w3.org/2000/svg" viewBox="0 0 375.501 91.695">
  <g id="Path-MST-link-sp">
    <path id="Path-Mst-1-sp" d="M123.206,89.512h-20.091v-27.196h7.672v-6.803h-22.148v6.803h7.865v27.196h-17.049c.902-.296,1.722-.692,2.426-1.185,3.804-2.659,6.277-8.578,3.831-13.87-.323-.698-1.642-3.035-5.237-4.185l-2.755-.699c-2.17-.496-4.418-1.01-5.873-2.181-.445-.353-1.796-1.432-1.616-3.209.16-1.636,1.247-2.835,2.827-3.137,1.638-.309,3.834-.123,5.043,1.01,1.031.966,1.148,1.794,1.246,2.453,0,0,.006.044.006.059h6.38c-.037-.925-.295-3.399-2.026-5.709-.425-.562-2.827-3.38-8.693-3.596-5.803-.213-10.001,2.702-11.144,5.702-1.276,3.326-.639,6.547-.283,7.501.686,1.854,1.762,3.88,4.593,4.941l1.02.305c3.959,1.154,8.137,2.465,9.049,3.372.964.97,1.928,2.665.949,4.865-.873,1.918-2.389,2.747-4.6,2.661-2.9-.1-4.628-1.719-5.325-4.867h-6.626c.106,2.135,1.243,7.368,5.604,9.11.642.258,1.299.477,1.962.659h-11.903v-33.869h-9.576l-4.922,25.255-4.922-25.255h-9.506v33.869H0M52.428,62.913v26.6h-6.192l6.192-26.6ZM35.273,63.232l6.119,26.28h-6.119v-26.28Z" fill="none" stroke="#d70c18" stroke-miterlimit="10" stroke-width="1.417"/>
    <path id="Path-Mst-2-sp" d="M87.642,90.986h49.978v-56.866h22.045l.261,46.305h7.44s-.087-1.573,0-.356c.028.394,0-37.74,0-37.74h5.091v2.891h4.608v44.323h5.283V25.356h1.036v-1.982h6.216v9.726l7.768.142v56.302s6.551-.1,8.124,0" fill="none" stroke="#d70c18" stroke-miterlimit="10" stroke-width="1.417"/>
    <path id="Path-Mst-3-sp" d="M193.977,89.485h-23.906v-20.369c9.283-6.887,13.052-13.359,13.052-13.359l4.389,6.006,3.696-20.098-17.326,5.544,4.158,3.927-6.93,8.085c-.344.39-.691.772-1.04,1.151v-9.698h-5.544v15.1c-1.257,1.101-2.531,2.142-3.812,3.125v-12.334h-5.544v16.221c-1.278.818-2.551,1.584-3.812,2.3v-9.512h-5.544v12.404c-1.303.622-2.577,1.192-3.812,1.713v-4.761h-5.544v6.89c-6.725,2.335-11.32,3.043-11.32,3.043,4.015-.344,7.784-.875,11.32-1.556v6.177c0-.297-13.33,0-13.33,0M142.003,89.485v-7.411c1.307-.331,2.576-.684,3.812-1.054v8.465h-3.812ZM151.359,89.485v-10.324c1.316-.492,2.589-1.002,3.812-1.529v11.853h-3.812ZM164.526,89.485h-3.812v-14.504c1.337-.704,2.609-1.423,3.812-2.15v16.653Z" fill="none" fill-rule="evenodd" stroke="#d70c18" stroke-linecap="round" stroke-linejoin="round" stroke-width="1.417"/>
    <path id="Path-Mst-4-sp" d="M214.565,89.486h-21.197M214.302,89.486c.071-1.697.231-3.388.519-5.07.708-.683.337-2.006.539-2.935.081-.373.398-1.237.568-1.583.121-.245-.035-1.095.063-1.349.124-.321.277-.598.253-.938-.04-.561-.023-1.257-.063-1.818-.29-4.036-.038-6.586-1.111-10.507-.548-2.003-1.3-3.972-1.514-6.029l-1.607.056s.695-2.698.821-3.636c.126-.938.758-9.383,1.769-10.498-.03-.542-.182-1.076.132-1.533.062-.09.137-.176.168-.279.083-.274-.168-.535-.213-.817-.064-.398.287-.756.322-1.157.034-.384-.221-.73-.409-1.074-.189-.343-.305-.795-.034-1.087.017-.656-.102-1.393-.259-2.033-.752-3.063-1.748-6.238-1.665-9.379.084-3.141,1.304-6.284,3.399-8.752.765-.901,1.849-2.052,2.159-3.154.471-1.672-.351-3.031-.968-4.418-.212-.475-.611-1.285-.611-1.798,0-.821-.026-1.597.232-2.326.179-.506.096-.69.59-1.212.128-.136.283-.305.4-.45.718-.892,1.825-1.421,3.008-1.709.899-.219,1.812-.387,2.741-.378,1.209.011,2.416.177,3.576.49.294.079.601.178.796.397.187.209.308.467.405.712.094.236.104.513.063.762-.05.309-.155.689-.488.706.383.37.513.9.628,1.402.101.441.202.881.302,1.322.048.209.096.425.059.636s-.177.421-.397.486c-.09.313-.005.677.168.958.364.59.606.938.97,1.527.076.123.266.382.211.528-.036.096-.105.23-.211.254-.176.041-.507.133-.695.098-.143.078-.111.207-.092.359s.095.294.149.439c.028.075.05.159.016.232-.038.081-.133.121-.218.162-.126.061-.248.141-.313.258-.065.117-.049.183.058.269.051.041.111.155.166.192.205.134.137.488-.105.549-.101.025-.222.009-.299.075-.056.047-.07.122-.079.192-.053.393.002.553.19.909.077.146-.08.627-.232.684-.116.044-.215.111-.337.137-1.032.215-1.902-.058-2.884-.059-.096,0-.313.213-.246.277-.162.454-.055.788-.025,1.266.04.636.918,1.15,1.113,1.761.085.265-.255.548-.171.813.167.522.334,1.045.554,1.55.574,1.317,1.691,2.385,2.261,3.704,1.182,2.736,2.352,6.109,2.825,9.35l1.301-.204s.791-.456,2.445.815l.476.238,3.847-.877-1.598-.799,5.434-11.668,6.385-.555c-.162-.99-.257-2.322-.146-3.359-.005-1.224.792-2.166,1.99-2.09.436.028,1.232-.688,1.994-.938-1.602-.012-1.525-1.501-1.525-1.501,3.262-1.513,3.271-3.554,3.133-8.933-.084-3.293,2.354-5.029,3.904-5.489,1.211-.472,2.608-.424,3.422-.237,1.548.354,3.455,1.789,3.064,3.865.25.558.503,1.195.503,1.481,0,.563-.084,1.112-.084,1.112,0,0,.338.788.338,1.126,0,.288.08,2.79-.387,4.217,0,0-.363,3.825,1.681,4.115.495.07-.27.336-.788.366l-.06.022c.367.07.771.225,1.22.485,1.518.879,2.466,3.779,2.387,4.419.393,3.298-.192,10.539.45,12.948.199.745.446,3.371.863,5.629,1.132.66,2.306,1.356,3.501,2.084-.068.109-.144.231-.224.363l1.297.71c.096.04.191.08.288.121.193-.056.459-.11.771-.288.616-.352,1.1-.439,1.408-.396.222.032,1.424.497,2.26.755l.931-.433c-.015-.028-.023-.043-.023-.043,0,0,8.091-5.789,8.998-6.696.767-.767,1.747-12.582,2.139-14.787.152-.855.552-1.434,1.026-1.819l4.219-3.286.576,2.408.837,7.567,1.156-5.158-.559-1.571.977-1.318-2.143-2.713.624-.676c-.351-.438-.741-.867-.829-.933-.426-.319-1.569.07-1.953-.313-.67-.671-.255-1.255-.232-1.372.061-.307-.465.104-.512-.745l.126-.243-.311-.291c.139-.744.085-1.025.023-1.046-.32-.107-1.045-.323-.872-.767.802-2.058.733-2.442.733-2.442,0,0-.207-.378-.314-.697-.107-.321.582-3.351.582-3.546,0-.046-.407.162-.337-.535.065-.652,1.651-1.93,4.442-2.301,2.05-.273,6.2-.055,7.347,2.371,1.627,3.441.57,6.762-.569,8.324-.215.294-.113.854-.337,1.174-.238.338-.798.428-.798.428l.267,1.201.389.222-.276.335c-.192.243-4.178,4.513-4.178,4.513l-.017.005.987,1.655-.804,1.55.869,6.812c.953-3.466,2.052-7.254,2.985-9.928.098-.325.192-.602.286-.85l1.221-2.57.884.557c.294.196,7.025,2.198,8.3,3.766,1.534,1.888,3.444,15.182,3.836,20.772,0,0-1.995,15.09-2.387,16.757-.067.562-.573.513-1,.364.006.674.045,1.894-.047,2.136-.099.263-.458,1.668-.654,1.733-.196.065-.425.033-.425.033,0,0-.132.752-.459.914-.196.099-.45.115-.622.111.132,2.52.243,5.329.198,6.983-.097,3.532-.343,11.387-.13,13.079.177,1.415.343,3.937.47,6.53M251.783,89.486h-27.714M259.949,89.486h-2.877M298.421,89.749c-.118-1.344-.286-2.936-.521-4.147-.57-2.933-2.333-13.92-2.936-25.41-.007-.136-.943-.021-.907-.837.263-5.899.019-11.581-.101-14.696-3.717,2.737-9.595,6.397-9.595,6.397-.139-.788-.374-1.617-.647-2.418l-1.914.444c-.072.043-.468.285-.991.597.161.307.276.557.271.633-.01.212-.436.828-.809.524-.171.369-.635.673-1.171.393-.244.33-.762.332-1.037.232-.159.111-.523.246-.834.03-.354.11-.83.242-1.005.145-.38-.211-.211-.43-.227-.433-.059-.014-.359.227-.784-.036-.404-.249-.602-.63-.602-.63,0,0,.143.182-.254.005-.276-.122-.538-.605-.363-.825-.264-.088-.651-.16-.733-.503-.088-.367,0-.705.395-.968.049-.032.173-.106.352-.207-.135-.18-.299-.398-.465-.616l-.664-.266c-.077.168-.151.334-.221.499.67,3.798,1.263,7.225,1.415,7.907l-1.253.428.73,2.662c-.056.482-.626,1.731-.947,2.222l5.183.239c.215-.012.4.153.413.369l.146,14.467c.013.215-.153.4-.368.413l-5.74-.54c.141,1.141.296,2.077.468,2.757-.146.104-1.412-.071-1.559.008l-.806.579c-.838.451-1.944.351-2.671.337-1.145-.018.512-.266-.545-.127-.112.554-.233,1.1-.322,1.395-.109.361-.255,1.12-.423,2.131l-.068.412c-.267,1.362-.503,3.718-.873,6.44M259.872,89.706c-.049-1.641.013-3.253.072-3.965.054-.654-.073-.492.079-1.212l.173-.866c.174-1.277.517-2.677.995-3.983-.546-.152-1.848-.17-2.441-.23-.627,1.424-.658,2.935-.75,4.213l-.022.437c-.07.813-.139,1.146-.238,1.807-.113.75-.391,2.348-.696,3.876M251.783,89.757c-.009-2.015.008-3.961.107-4.693.055-.408.049-.76.153-1.266l.026-.134c.198-1.363.74-3.472.938-4.521-1.111.167-2.11-1.049-3.871-.614-1.347.333-2.392-.528-2.388-.808.006-.276,4.2-8.138,5.877-28.405.501-5.011,2.759-8.202,2.701-10.015-1.027-1.677-2.702-5.182-4.141-9.441l-3.553,7.452s3.197.639.799,2.238l-4.314.833c.01.017.021.032.02.058-.001.032-.101.643-.029.427.155-.072-.016.036.035.145.045.096-.034.289-.196.532.061,0,.252.023-.061.374-.316.355-.927,1.045-1.203,1.302-.276.257-1.312,1.106-1.923,1.283-.011.004-.027.009-.188.063-1.117.485-2.34.502-3.094.627-.365.06-.917.097-1.458.12l.426,2.067-4.616.303c.011,1.008.018,2.033.052,2.959.027.721.058,1.462.368,2.123.206.439.533.841.601,1.315.052.366-.057.733-.119,1.097-.187,1.094.066,2.247.698,3.186-.548-.049-1.096-.099-1.644-.148-.319-.029-.664-.052-.938.102-.216.122-.351.334-.476.538-.304.494-.608.987-.912,1.481.268,2.573.037,5.253-.184,7.83-.109,1.273-.219,2.552-.53,3.795-.298,1.193-.778,2.34-1.155,3.515-1.467,4.572-1.386,9.565-3.112,14.009M243.307,40.575c.15-.031.276-.062.356-.105l-.27.052c-.023.019-.058.035-.087.053ZM298.421,89.486h-32.983M315.437,89.486h12.072v-14.024l7.544.037M334.793,75.499v9.445h9.264v-43.761l15.577-1.785,6.704,8.231v32.203h3.206v-13.702h5.247l-.03,13.504" fill="none" stroke="#d70c18" stroke-miterlimit="10" stroke-width="1.417"/>
  </g>
</svg>