<svg id="拡大アイコン2" xmlns="http://www.w3.org/2000/svg" width="18.655" height="18.653" viewBox="0 0 18.655 18.653">
  <path id="パス_419" data-name="パス 419" d="M149.628,146.18h-1.9v-1.9a.781.781,0,0,0-1.562,0v1.9h-1.9a.781.781,0,1,0,0,1.562h1.9v1.9a.781.781,0,0,0,1.562,0v-1.9h1.9a.781.781,0,1,0,0-1.562Z" transform="translate(-138.267 -138.276)" fill="#f8f8f8"/>
  <path id="パス_420" data-name="パス 420" d="M18.036,15.1l-1.92-1.92a8.707,8.707,0,1,0-2.964,2.964l1.919,1.918A2.1,2.1,0,1,0,18.036,15.1Zm-5.585-2.621A5.331,5.331,0,1,1,14.014,8.7,5.3,5.3,0,0,1,12.452,12.474Z" transform="translate(0.004 -0.02)" fill="#f8f8f8"/>
</svg>
