<?xml version="1.0" encoding="UTF-8"?>
<svg id="_レイヤー_2" data-name="レイヤー 2" xmlns="http://www.w3.org/2000/svg" viewBox="0 0 1633.701 1402.02">
  <g id="sec1">
    <path id="treePath" d="M0,762.264h752.841c66.583-2.378,74.906-14.516,74.906-14.516,66.583-43.993,45.181-231.014,45.181-231.014-129.599-70.15-293.969,1.189-293.969,1.189,198.562,52.316,156.946-90.363,156.946-90.363-30.913-85.607-141.489-114.142-141.489-114.142-14.269,30.914,29.724,74.906,29.724,74.906-57.072-28.535-162.891-1.189-162.891-1.189,80.851,99.876,379.287,74.906,379.287,74.906,0-145.056-137.923-190.238-137.923-190.238-13.079,90.363,142.679,158.136,142.679,158.136,0,0,38.345,13.673,42.804,5.647l-.892-62.421c-26.752-75.799-131.086-123.952-131.086-123.952,0,0-64.205-48.749,98.686-99.875,0,0,66.584-43.993-71.933-108.793-19.916,73.417,63.61,107.603,63.61,107.603,58.261,10.702,54.694,159.325,54.694,159.325,0,0-170.025-180.726-353.129-149.813,0,0,76.095,126.033,183.104,17.836,0,0,39.236-59.45-51.126-93.93,0,0,30.913,120.088,279.412,178.349,86.796-20.213,97.497-243.744,97.497-243.744,0,0-92.147,24.97-60.935,104.632-236.312-203.318-36.562,108.198-36.562,108.198,38.048-87.985-33.292-225.308-33.292-225.308-40.425,126.032,73.717,192.615,73.717,192.615,97.497,45.181,135.544-149.812,135.544-149.812-121.277,71.339-105.819,264.546-105.819,264.546,152.19-55.883,101.064-164.671,101.064-164.671-30.914,40.426-27.347,131.379-27.347,131.379,0,0,9.511,78.474-64.205,102.253l1.189,51.126s43.992-2.969,72.528-63.016c58.261-99.875,111.766-136.734,111.766-136.734,91.552-91.552,141.489-49.937,141.489-49.937-102.253,97.497-178.348,35.67-178.348,35.67-11.89-142.679,52.315-163.482,52.315-163.482,9.512,86.198-42.804,150.404-42.804,150.404-5.827,13.772-27.079,20.424-32.102,49.937-9.512,55.883,27.347,77.883,27.347,77.883,145.057,61.827,223.529-64.206,223.529-64.206-194.994-28.535-273.467,171.215-273.467,171.215-9.512,39.827,33.292,11.89,33.292,11.89,101.064-113.553,284.168-35.079,284.168-35.079-117.71,96.307-216.396,34.481-216.396,34.481-22.07-13.952-45.272-21.486-60.513-22.912-113.108-10.591-119.024,37.778-119.024,37.778-14.268,57.071,127.222,50.528,127.222,50.528-40.425-29.725-92.741-32.103-92.741-32.103-47.27-4.406-48.459,52.316-48.459,52.316-9.511,170.025,41.615,205.694,41.615,205.694,30.913,27.348,119.204,19.623,119.204,19.623,385.232-8.327,419.118,367.988,419.118,367.988,10.237,123.607-10.317,211.155-49.035,272.389" fill="none" stroke="#d70c18" stroke-miterlimit="10" stroke-width="2.124"/>
    <polygon id="diamond1" points="671.028 450.977 651.282 421.2 671.028 391.423 690.775 421.2 671.028 450.977" fill="#d70c18"/>
    <polygon id="diamond2" points="629.658 287.601 609.911 257.824 629.658 228.047 649.405 257.824 629.658 287.601" fill="#2ea0d2"/>
    <polygon id="diamond3" points="859.75 416.974 840.003 387.197 859.75 357.42 879.498 387.197 859.75 416.974" fill="#133d83"/>
    <polygon id="diamond4" points="769.008 144.648 749.26 114.87 769.008 85.093 788.755 114.87 769.008 144.648" fill="#86bc42"/>
    <polygon id="diamond5" points="767.66 287.466 747.913 257.688 767.66 227.911 787.408 257.688 767.66 287.466" fill="#d70c18"/>
    <polygon id="diamond6" points="973.155 59.555 953.409 29.777 973.155 0 992.902 29.777 973.155 59.555" fill="#d70c18"/>
    <polygon id="diamond7" points="1068.116 278.405 1048.368 248.627 1068.116 218.85 1087.863 248.627 1068.116 278.405" fill="#2ea0d2"/>
    <polygon id="diamond8" points="1159.458 179.814 1139.711 150.037 1159.458 120.259 1179.206 150.037 1159.458 179.814" fill="#d70c18"/>
    <polygon id="diamond9" points="1273.921 435.526 1254.174 405.748 1273.921 375.971 1293.669 405.748 1273.921 435.526" fill="#d70c18"/>
    <polygon id="diamond10" points="1315.219 292.842 1295.472 263.065 1315.219 233.287 1334.967 263.065 1315.219 292.842" fill="#86bc42"/>
  </g>
</svg>