<?xml version="1.0" encoding="UTF-8"?>
<svg id="_レイヤー_2" data-name="レイヤー 2" xmlns="http://www.w3.org/2000/svg" viewBox="0 0 1355.496 2086.342">
  <g id="sec2">
    <path id="sec2Path1" d="M1310.36,32.55c-143.399,226.798-535.947,92.633-535.947,92.633C530.075,34.226,392.376,23.539,392.376,23.539c-46.312-5.418-84.344-2.99-84.344-2.99C69.827,37.538,40.752,275.564,40.752,275.564c-16.188,168.016,96.958,319.266,272.545,339.731,169.289,19.73,319.851-102.264,336.039-270.281C665.524,176.998,532.195,21.817,362.794,3.073c0,0-301.775-43.162-358.846,270.481,0,0-54.396,291.85,309.137,383.105,0,0,327.82,73.225,371.188,171.36" fill="none" stroke="#d70c18" stroke-miterlimit="10" stroke-width="2.124"/>
    <path id="sec2Path2" d="M681.983,823.073l1.502,1.784v-82.468h10.645v-38.569h23.671v50.291h18.851v-50.291h20.291v38.569h9.457v92.574h24.259v-117.245h34.666l14.335,27.49v89.755h8.822v-33.13h14.976v-40.932l16.271-17.572h10.013v91.634h13.783v-111.606h4.343v-15.218h8.404v15.218h4.343v111.606h30.651l11.343-86.701-6.616-5.639v-.352l.275-8.107h7.168v-15.86l-5.238-12.335h6.341v-29.956l2.205.626,2.206-.626v29.956h6.34l-5.238,12.335v15.86h7.168l.275,8.107v.352l-6.616,5.639,12.831,98.081,9.147-20.776c.446-8.677,16.583-15.65,36.425-15.65s35.978,6.973,36.425,15.65l9.168,20.827h-13.71l.367-7.567v-50.752h16.801v18.222c8.153-4.034,22.949-13.246,26.477-28.29.26.523,14.287,24.53,45.472,27.539,9.614-.894,41.135-13.369,44.457-27.539.275.554,20.842,28.759,39.649,29.226h36.878v-8.645h-5.667l-16.588-34.394h104.791l-16.588,34.394h-4.932v40.133h-17.644v-40.133h-5.667l-7.565-26.074-7.565,26.074h-4.933v40.133h-39.782v-19.216h-156.947s62.421,115.926-300.814,125.438c0,0-174.154,2.083-241.676,120.725,0,0-32.102,62.423-35.505,142.679" fill="none" stroke="#d70c18" stroke-miterlimit="10" stroke-width="2.124"/>
    <path id="sec2Path3" d="M514.188,1208.348l-24.132-20.556-14.691-11.797-14.527-12.379-.462-11.996v-16.611l.922-11.075.923-4.152,4.048.427,9.014-2.12,2.854-1.06-8.156-33.933-1.591-8.482c22.268-1.061,19.617-19.086,19.617-19.086,1.59-12.195-12.194-18.557-12.194-18.557l-45.066-22.798,2.121,11.664c3.181,10.604-3.712,14.316-3.712,14.316-7.422-5.302-36.582-5.302-36.582-5.302-10.604,2.12-.53-6.892-.53-6.892,3.711-4.772,24.388-6.362,24.388-6.362l-4.772-4.242c-7.422-5.302-1.59-11.664-1.59-11.664,2.12,6.892,22.268,15.375,22.268,15.375,0,0,5.831,20.148-7.423,24.919,0,0,21.565,12.856,40.577,18.285,11.408,3.258,21.897,3.844,26.258-2.625l1.846-5.999.462-2.768v-12.459l-1.846-24.454-3.691-40.605-1.846-13.38-1.846-7.845-1.384-2.768-4.614-2.769-19.379-7.843-5.538-2.307-4.614-4.154-2.307-2.768-1.846-.461-4.153,3.229-3.691,4.154-7.383,11.073-5.537,8.767-6.922,12.919-3.691,7.844h-.462l.462-5.537,1.384-11.075.462-6.459,1.384-2.308,3.229-1.846,3.725.64-4.186-3.87-2.768-3.229-1.384-1.384,3.691-3.692,5.998-4.614,8.767-5.999,5.075-2.768-.461-4.152v-5.538l1.846-5.075,5.537-7.383,3.229-6.46,1.846-10.151v-6.921l-1.384-5.076-2.768-5.075-1.846-1.846-2.768-.922-2.307-2.769-11.074-3.691-3.229-.461h-3.692l-11.535,2.307-6.459,1.846-5.076,2.769-2.768,1.846-2.308,2.307-2.307.922-.923,2.308-.462-.923h-.922l.461,4.152,2.308,1.846,3.691.923-1.842,3.596-1.783,5.35,2.241,2.588.462,2.307-1.846,3.23-7.099,5.999v1.846l6.177,1.845.461.462.462,3.23.462.461.923,4.152v6.922l1.384,1.384.923.462,10.612.461,1.846.923,1.384,4.153,1.384,10.613,1.846,1.845v.924l-2.768,1.845-2.308,3.23h-.461l-.462-2.768-3.23,2.768-5.537,4.153-9.229,4.614-1.845,4.152-6.46,25.839-3.23,9.229-5.075,12.458-3.23,9.229-5.998,4.614-12.458,6.921-9.69,4.615-4.153,1.846h-3.23l-4.153-3.692-1.846-.922-6.921-.922-2.768,1.384-1.846,2.307h-6.921l-.923-.461-.462,4.383v1.153l-.277,1.478-.185,1.752-.485,1.822-.437,2.332-.639,1.704-.284,1.065-.185.184-.277.738-.093-.369-.369.369.154-1.23-.154-.616,1.039-5.449,1.268-7.93h0v-2.308l-23.071-2.769-15.227-1.846-.462-.461-1.845-23.994-1.384-15.688-2.769-18.457-1.384-4.614-8.305-5.536-4.614-4.154-4.153-4.614-1.846-.922-3.691-3.23.922-1.384h.923v-5.999l1.384-7.843,1.845-1.846h11.074l2.307-2.308v-7.381l.923-3.692.461-3.23,4.614-2.768-.922-2.769-4.153-5.999-.462-.922v-3.23l.462-.923-.462-10.151,3.23-1.384,1.384-1.846c4.434-3.073-2.057-12.781-2.057-12.781l.396.793-1.982-3.171c-38.047-13.87-51.197,10.246-51.197,10.246l-2.307,3.23-.922,3.229-.462,7.845-.069,5.375,1.846,6.46,3.691,7.382,2.768,4.614.923,2.308v6.459l-.462,3.691,5.537,2.308,6.46,3.691,6.459,5.076,4.614,4.152,1.846,2.769-4.153,3.692-2.768,4.152.922-.461,1.846.461,4.153,2.307,2.307,8.305,1.384,5.999,7.32,17.563-6.773-9.483-7.451-13.546-6.227-10.332,2.52-.812-3.065,1.662-2.933-8.583-5.537-5.998-3.23-3.23-5.998-3.692-2.308-.922h-2.307l-5.537,7.383-14.304,5.998-7.383,3.691-2.308,1.846-1.845,4.614-1.384,8.767v11.997l1.384,9.228,2.307,8.306,3.691,8.305,3.23,7.383,3.23,8.767,4.614,14.304,1.846,8.767.922,9.229v9.69l-2.768,24.917-6.733,22.312-5.419,15.062,9.844.923,3.23.923,3.839,12.865,2.676,18.973-104.56,112.592v17.835h157.179v-45.911h31.27v45.911h25.257v-86.684h31.27v86.684h25.258v-117.832h31.27v117.832h514.954M271.221,1119.52l9.024-7.599-9.51-47.971v-5.536l31.838,5.075.462-3.692.922-4.613,2.308.461,2.768.924-.462,3.691,3.23.923.462,1.846,2.768.462.923,1.384,2.768.923.923.923h2.768l1.845.922h3.23l2.307-2.308,2.769-1.384,1.384-1.845,2.307-.923h1.384l2.768,2.308h3.692l5.075-2.769,11.535-6.46,24.916-13.381.462-.462.923.462-5.537,43.835-2.768,24.917-.922,10.151v2.769l2.768-1.846,1.384,7.844,3.691,25.378,3.692,2.601v.923h-122.737l4.639-37.931ZM337.64,1037.188s4.568,12.506,3.508,17.808M307.648,1036.266l.462-.462h.462v3.461l-.277,2.63-.67,3.575-1.076,4.035-.469,1.25-.369.369-.215-.861.308-2.461.576-3.604.808-4.24.461-3.69h0Z" fill="none" stroke="#d70c18" stroke-miterlimit="10" stroke-width="2.439"/>
    <path id="sec2Path4" d="M910.246,1289.428c227.097,0,277.034,94.051,277.034,94.051,73.123,104.631-137.923,149.813-137.923,149.813,0,0-155.05,42.345-206.4,90.873,0,0-27.831,20.892-49.824,52.404-52.938-41.69-133.668-68.332-224.128-68.332-7.47,0-14.874.182-22.202.539-36.388-61.556-129.296-105.326-238.187-105.326-140.616,0-254.607,72.982-254.607,163.01,0,85.08,101.811,154.923,231.683,162.345,25.993,84.995,142.945,149.131,283.312,149.131,123.105,0,228.196-49.334,269.721-118.803,52.125,40.29,130.855,65.958,218.953,65.958,156.947,0,284.178-81.458,284.178-181.942s-127.231-181.943-284.178-181.943M396.662,1818.889c-28.099,6.836-58.577,10.579-90.422,10.579-7.728,0-15.371-.233-22.924-.665M839.139,1859.478c-40.736-31.487-65.225-71.904-65.225-115.984,0-14.034,2.483-27.697,7.181-40.818M546.641,1608.379c10.601,17.934,16.42,37.372,16.42,57.683" fill="none" stroke="#d70c18" stroke-miterlimit="10" stroke-width="2.439"/>
    <path id="sec2Path5" d="M919.02,1901.97s143.789,46.817,173.209,97.402c17.652,30.351-6.012,87.988-125.208,85.683h-235.752" fill="none" stroke="#d70c18" stroke-miterlimit="10" stroke-width="2.439"/>
  </g>
</svg>