<?xml version="1.0" encoding="UTF-8"?>
<svg id="_レイヤー_2" data-name="レイヤー 2" xmlns="http://www.w3.org/2000/svg" viewBox="0 0 1033.972 1063.114">
  <g id="sec3">
    <path id="sec3Path1" d="M161.207,457.067c29.462,57.192,89.087,96.308,157.853,96.308,0,0,311.804-.245,506.806,180.132,0,0,116.521,129.599,79.662,247.309,0,0-24.969,63.016,45.112,80.687,0,0,66.059,7.298,82.111-46.206M180.166,334.542c-.513.769-1.027,1.536-1.54,2.305.749-1.004,1.436-1.926,1.687-2.262-.049-.015-.097-.028-.147-.043ZM101.916,322.335c-2.198-2.062-4.346-3.663-6.398-4.927-.855-5.638-3.554-11.268-8.338-16.113-1.29-1.308-2.676-2.605-4.114-3.895.11-.135.214-.283.304-.461,2.292-4.529-3.808-14.985-9.059-15.161-3.447-.116-4.532,2.897-4.149,5.793-2.921-1.895-6.028-3.748-9.392-5.529-24.452-12.947,13.654-4.215-.614,19.565-2.006,3.344-48.245,14.193-44.026,19.709,6.535,8.539,24.769,17.537,24.769,17.537-1.712.59-3.59.486-4.675,1.12-7.295,4.26,6.565,15.459,16.843,6.378,0,0,4.811,2.086,14.407,1.597l-.448,1.366c7.307-2.601,29.263,3.045,39.449,10.978l10.184,7.934,10.704.941s-13.211-35.354-25.447-46.832ZM67.475,347.948s39.624-4.335,28.043-30.54M61.94,356.003c1.784,1.784,13.674,11.89,13.674,11.89l14.268-3.567,11.295,17.24,26.186-12.399M7.428,317.229c-26.609-30.185,41.095-71.362,51.165-45.027,4.193.853,7.728,3.642,10.928,6.036,4.612-1.138,9.225,1.434,15.71,3.136,5.304,2.261,8.532,8.188,10.194,12.255,3.961.914,8.402,1.616,12.312,2.131l6.064-9.512c.49-1.006.969-1.999,1.449-2.992.398-.823.792-1.641,1.184-2.456.176-.367.354-.735.529-1.101.434-.905.867-1.808,1.296-2.707.104-.22.209-.438.313-.658,1.336-2.798,2.656-5.576,3.983-8.365.15-.315.301-.63.451-.946.367-.77.737-1.543,1.106-2.317.241-.505.482-1.009.725-1.517.355-.744.717-1.495,1.077-2.244.235-.49.468-.976.705-1.467.596-1.235,1.198-2.478,1.81-3.735,2.307-4.739,6.143-1.786,10.971,1.371,20.363,12.633,32.26,20.174,52.556,34.096,7.51,4.91,12.791,6.043,8.268,12.918l-11.506,17.494c.744-.486,1.499-1.021,2.232-1.633,1.189,2.228.471,5.215.471,5.215,0,0-2.526,3.032-4.936,3.749l.746-1.171c1.822,2.283,2.431,3.827,1.008,4.946-1.422,1.119-4.928,2.445-6.151,2.288-.171-.022-.637.851-.953.774.379,2.828.039,4.583-1.237,5.644-1.328,1.105-4.144,4.206-4.819,2.862-.401-.797.509-2.717,1.526-4.428-7.145,10.692-14.291,21.384-21.435,32.075,16.084,6.992,12.404,10.086,8.129,12.712-2.685,1.648-7.556,4.004-13.964,6.029-2.885.912-5.441,1.286-7.79,1.433,1.413,6.249,2.235,10.436,2.235,10.436,0,0,.398,2.767-.655,7.997l.573,2.873c.041.207-.093.408-.298.447-.206.041-.408-.092-.448-.298l-.236-1.183c-.304,1.252-.685,2.616-1.163,4.094.445.008.728.014.733.014.187.004.321.15.349.33,5.766-.077,12.467-.18,14.518-.272,3.818-.172,16.986-3.431,16.986-3.431l22.357-6.134c.304-.084.622.096.942.441,1.667-.508,3.334-1.017,5-1.524.16.383.308.745.456,1.109,1.715-.51,1.951-.615,1.979-.629.003-.002.004-.002.004-.002l.03-.035h0c.565-.63,9.175-10.21,11.89-11.545,1.025-.506,7.464-2.389,12.314-3.934,2.588-.824,4.681-2.379,5.352-1.74,2.933,2.789-7.892,8.936-9.426,10.104,0,0,14.315-3.17,19.116-3.56,4.801-.393,9.242-.67,9.69,1.21.346,1.456-1.792,2.729-2.776,3.23.017.155-.058.293-.198.365.847.423,3.308,1.788,2.586,3.08-.565,1.013-1.729,2.061-2.474,2.673.026.024.065.029.085.06.111.178.056.412-.122.523-.089.056-.203.114-.31.172.516.401,1.372,1.367.585,3.001-.6,1.248-2.164,2.461-3.43,3.29.079.189-.002.409-.189.493-.345.156-.932.372-1.664.621-.188.212-1.205,1.363-3.133,3.518-1.761,1.973-10.217,5.339-16.613,6.358.005,0,.011.002.016.002-.39.062-.769.114-1.14.158-.107.013-.208.021-.313.033-.315.032-.622.058-.921.077-.113.006-.227.013-.338.018-.38.016-.75.023-1.095.011-6.192-.218-8.935-.264-8.935-.264l-5.658.105c.124.717.25,1.459.385,2.259,0,0-.008,0-5.518.48.448,4.451.615,8.061.615,8.061-14.354,3.246-27.228,9.185-40.513,13.063.012.009.027.019.038.028,4.516,3.473,8.31,7.41-11.01,13.42-15.855,4.932-28.152-.647-39.9-6.927,0,0-.003.002-.004.002-.018.006-.036.012-.054.018-.045.016-.09.029-.135.045-.47.162-.937.309-1.402.444-.129.038-.257.075-.386.11-.488.135-.973.259-1.454.366-.015.004-.03.007-.045.011-.499.11-.995.201-1.486.283-.124.021-.247.04-.37.059-.423.065-.842.122-1.258.168-.069.008-.139.018-.209.025-.475.05-.944.085-1.409.113-.113.006-.222.011-.334.015-.384.019-.766.031-1.142.035-.092,0-.184.004-.275.004-.446.002-.887-.006-1.318-.022-.094-.004-.185-.009-.277-.014-.357-.016-.709-.038-1.056-.065-.102-.008-.203-.015-.304-.023-.411-.036-.814-.077-1.21-.126-.068-.008-.131-.018-.199-.027-.337-.043-.667-.091-.991-.142-.101-.016-.201-.031-.3-.049-.371-.062-.735-.127-1.087-.197-.025-.005-.049-.011-.075-.016-.332-.067-.652-.137-.966-.21-.091-.021-.181-.042-.27-.063-.293-.07-.577-.141-.851-.214-.034-.009-.07-.018-.103-.027-.303-.082-.591-.164-.87-.247-.076-.023-.15-.046-.225-.068-.228-.069-.446-.138-.656-.206-.047-.015-.094-.031-.14-.046-.246-.081-.476-.161-.695-.238-.057-.021-.108-.04-.162-.06-.172-.062-.335-.122-.489-.182-.045-.017-.092-.034-.136-.051-.18-.07-.346-.137-.497-.198-.036-.015-.067-.028-.101-.042-.121-.05-.229-.096-.329-.14-.032-.013-.061-.027-.09-.04-.111-.049-.208-.092-.286-.129-.018-.008-.027-.012-.042-.019-.064-.03-.114-.054-.152-.072-.019-.009-.025-.012-.037-.018-.03-.014-.05-.024-.05-.024,0,0,.005-.055.011-.12,0-.02.004-.057.005-.082.006-.072.013-.171.021-.283.004-.053.007-.116.011-.178.007-.122.015-.267.023-.42.004-.081.008-.161.012-.249.009-.191.016-.409.023-.635.003-.076.005-.144.008-.225.008-.314.014-.657.018-1.027,0-.074,0-.159,0-.237,0-.3,0-.614-.004-.945-.002-.135-.005-.276-.008-.417-.005-.294-.014-.599-.025-.913-.006-.162-.013-.327-.02-.494-.014-.327-.033-.665-.055-1.008-.01-.161-.018-.319-.03-.483-.035-.492-.077-.996-.128-1.515-.002-.019-.003-.036-.005-.054-.053-.528-.119-1.071-.192-1.62-.023-.176-.051-.356-.077-.534-.055-.382-.114-.767-.18-1.155-.036-.212-.076-.427-.115-.641-.068-.369-.143-.74-.222-1.112-.046-.215-.092-.43-.141-.646-.095-.413-.202-.827-.311-1.241-.045-.169-.086-.338-.133-.508-.009-.032-.021-.064-.03-.095-.026-.012-.055-.024-.082-.036-.112-.049-.165-.156-.182-.273-14.269-6.469-28.112-14.405-34.489-22.349-9.493-8.274-18.075-21.083-17.734-38.726.185-9.6,1.301-20.023,3.596-31.02-5.763-.887-12.13-2.426-17.402-5.029-5.17-2.555-11.83-8.667-10.822-11.201.464-1.169,1.536-2.715.657-2.115M415.665,322.117l9.512.594-5.945,7.729-15.457,2.972,1.783,5.351c21.402,5.945,38.048-15.457,38.048-15.457l-3.568-10.106,48.605-48.775c28.72-30.303,16.503-99.963,16.503-99.963-10.096-32.171-40.139-33.772-40.139-33.772-6.38-3.458-.53-7.71-.53-7.71,13.83-26.85-11.156-46.263-11.156-46.263-1.328-5.317-21.268-6.651-21.268-6.651-36.956-.805-42.809,24.717-42.809,24.717,3.982,29.246,38.812,16.492,38.812,16.492l8.771,9.573c-1.065,7.178,8.772,8.243,8.772,8.243,12.497-9.569,2.922,11.167,2.922,11.167-4.258,19.408-38.555,25.25-38.555,25.25-7.976-2.66-11.695-14.093-11.695-14.093-4.253-1.862-4.785-4.255-4.785-4.255l1.864-12.229s-3.722-4.786-5.05-6.116c-1.86-5.052.27-20.737.27-20.737l-5.848-5.052c-6.912-3.193-19.941,7.972-19.941,7.972l-38.294,45.721c-11.168,8.24-16.757,35.623-16.757,35.623l-13.835,48.119.797,5.583-2.128,11.697,2.126,5.585-11.702,15.151,6.647,3.99s1.86,3.722,2.657,5.317c.797,1.596,1.328,7.977,1.328,7.977,0,0-.799,6.38-.002,7.976s1.328,5.317,1.328,5.317l5.317.002-.265-5.849,1.065-7.178,3.459-10.368,3.458-7.709,6.116-7.71,5.052-.53,4.522-10.9,1.863-12.229-1.062-6.116,3.459-10.368,10.637-13.291,1.976-18.938,27.347-29.13,7.899,38.77M460.252,127.123c-8.917,38.642-57.072,61.233-57.072,61.233,0,0,36.859,1.189,50.532-7.728l-3.567-10.701,13.673,1.189s2.973-27.346-.594-40.426M472.707,184.662l-8.786,59.552-32.18,49.976-18.347,13.821-10.214,6.376c-7.133-1.783-7.133,4.162-7.133,4.162,7.178,3.724,19.618,3.568,19.618,3.568l-48.748-2.379-13.674,108.793,87.985,3.567,11.89-107.009M453.13,259.659c-24.548-28.285-57.901-48.713-95.791-57.045M409.338,528.727c52.186-30.898,87.178-87.767,87.178-152.808,0-33.313-9.188-64.477-25.155-91.111M308.656,199.057l-.008-.283c-57.255,3.314-107.226,33.765-137.242,78.692M262.285,267.423l-56.477,87.391,74.906,37.453,56.477-87.985-31.508-14.863M262.285,267.423C262.285-16.745,558.83,1.512,558.83,1.512h296.42" fill="none" stroke="#d70c18" stroke-miterlimit="10" stroke-width="2.552"/>
  </g>
</svg>