<svg viewBox="0 0 25.408 40.238" xmlns="http://www.w3.org/2000/svg"><path d="m10.123 6.237-3.886 3.886c-.535.537-1.413.537-1.949 0l-3.886-3.886c-.536-.536-.536-1.412 0-1.949l3.886-3.886c.536-.537 1.413-.537 1.949 0l3.886 3.886c.535.537.535 1.413 0 1.949m7.575 7.575c.535-.536.535-1.413 0-1.949l-3.886-3.886c-.535-.537-1.413-.537-1.949 0l-3.886 3.886c-.536.536-.536 1.413 0 1.949l3.886 3.886c.536.537 1.413.537 1.949 0zm0 14.616c.535-.536.535-1.413 0-1.949l-3.886-3.886c-.535-.537-1.413-.537-1.949 0l-3.886 3.886c-.536.536-.536 1.413 0 1.949l3.886 3.886c.536.537 1.413.537 1.949 0zm7.308-7.308c.535-.536.535-1.413 0-1.949l-3.886-3.886c-.535-.537-1.413-.537-1.949 0l-3.886 3.886c-.536.536-.536 1.413 0 1.949l3.886 3.886c.536.537 1.413.537 1.949 0zm-14.829 14.829c.535-.536.535-1.413 0-1.949l-3.886-3.886c-.535-.537-1.413-.537-1.949 0l-3.886 3.886c-.536.536-.536 1.413 0 1.949l3.886 3.886c.536.537 1.413.537 1.949 0z" fill="#fff"/></svg>